<svg xmlns="http://www.w3.org/2000/svg" xmlns:xlink="http://www.w3.org/1999/xlink" width="500" zoomAndPan="magnify" viewBox="0 0 375 374.999991" height="500" preserveAspectRatio="xMidYMid meet" version="1.0"><defs><g/><clipPath id="91081330f8"><path d="M 89.832031 48.039062 L 285.160156 48.039062 L 285.160156 217.304688 L 89.832031 217.304688 Z M 89.832031 48.039062 " clip-rule="nonzero"/></clipPath><clipPath id="8973dee917"><path d="M 134.882812 195.292969 L 145 195.292969 L 145 205 L 134.882812 205 Z M 134.882812 195.292969 " clip-rule="nonzero"/></clipPath><clipPath id="472566f3b9"><path d="M 147 195.292969 L 156.632812 195.292969 L 156.632812 205 L 147 205 Z M 147 195.292969 " clip-rule="nonzero"/></clipPath><clipPath id="bf79ccee3b"><path d="M 134.882812 207 L 145 207 L 145 217.042969 L 134.882812 217.042969 Z M 134.882812 207 " clip-rule="nonzero"/></clipPath><clipPath id="970a185a1f"><path d="M 147 207 L 156.632812 207 L 156.632812 217.042969 L 147 217.042969 Z M 147 207 " clip-rule="nonzero"/></clipPath><clipPath id="c6f5d2d3c3"><path d="M 235.707031 165.613281 L 246 165.613281 L 246 176 L 235.707031 176 Z M 235.707031 165.613281 " clip-rule="nonzero"/></clipPath><clipPath id="af2f1deda6"><path d="M 247 165.613281 L 257.457031 165.613281 L 257.457031 176 L 247 176 Z M 247 165.613281 " clip-rule="nonzero"/></clipPath><clipPath id="555ddb27e4"><path d="M 235.707031 177 L 246 177 L 246 187.363281 L 235.707031 187.363281 Z M 235.707031 177 " clip-rule="nonzero"/></clipPath><clipPath id="ec742e66af"><path d="M 247 177 L 257.457031 177 L 257.457031 187.363281 L 247 187.363281 Z M 247 177 " clip-rule="nonzero"/></clipPath><clipPath id="542a54cadc"><path d="M 145.828125 62.730469 L 209.578125 62.730469 L 209.578125 126.480469 L 145.828125 126.480469 Z M 145.828125 62.730469 " clip-rule="nonzero"/></clipPath></defs><g clip-path="url(#91081330f8)"><path fill="#00992f" d="M 218.257812 64.394531 L 237.578125 80.398438 L 179.519531 164.070312 L 152.46875 127.132812 L 89.832031 217.304688 L 150.351562 152.988281 L 180.089844 202.546875 L 262.617188 101.15625 L 282.765625 117.871094 L 285.160156 48.023438 L 218.257812 64.394531 " fill-opacity="1" fill-rule="nonzero"/></g><g clip-path="url(#8973dee917)"><path fill="#ff3131" d="M 144.074219 195.292969 L 135.320312 195.292969 C 135.082031 195.292969 134.882812 195.488281 134.882812 195.730469 L 134.882812 204.480469 C 134.882812 204.722656 135.082031 204.917969 135.320312 204.917969 L 144.074219 204.917969 C 144.316406 204.917969 144.511719 204.722656 144.511719 204.480469 L 144.511719 195.730469 C 144.511719 195.488281 144.316406 195.292969 144.074219 195.292969 Z M 144.074219 195.292969 " fill-opacity="1" fill-rule="nonzero"/></g><g clip-path="url(#472566f3b9)"><path fill="#ff3131" d="M 156.324219 195.292969 L 147.574219 195.292969 C 147.332031 195.292969 147.136719 195.488281 147.136719 195.730469 L 147.136719 204.480469 C 147.136719 204.722656 147.332031 204.917969 147.574219 204.917969 L 156.324219 204.917969 C 156.566406 204.917969 156.761719 204.722656 156.761719 204.480469 L 156.761719 195.730469 C 156.761719 195.488281 156.566406 195.292969 156.324219 195.292969 Z M 156.324219 195.292969 " fill-opacity="1" fill-rule="nonzero"/></g><g clip-path="url(#bf79ccee3b)"><path fill="#ff3131" d="M 144.074219 207.542969 L 135.320312 207.542969 C 135.082031 207.542969 134.882812 207.738281 134.882812 207.980469 L 134.882812 216.730469 C 134.882812 216.972656 135.082031 217.171875 135.320312 217.171875 L 144.074219 217.171875 C 144.316406 217.171875 144.511719 216.972656 144.511719 216.730469 L 144.511719 207.980469 C 144.511719 207.738281 144.316406 207.542969 144.074219 207.542969 Z M 144.074219 207.542969 " fill-opacity="1" fill-rule="nonzero"/></g><g clip-path="url(#970a185a1f)"><path fill="#ff3131" d="M 156.324219 207.542969 L 147.574219 207.542969 C 147.332031 207.542969 147.136719 207.738281 147.136719 207.980469 L 147.136719 216.730469 C 147.136719 216.972656 147.332031 217.171875 147.574219 217.171875 L 156.324219 217.171875 C 156.566406 217.171875 156.761719 216.972656 156.761719 216.730469 L 156.761719 207.980469 C 156.761719 207.738281 156.566406 207.542969 156.324219 207.542969 Z M 156.324219 207.542969 " fill-opacity="1" fill-rule="nonzero"/></g><g clip-path="url(#c6f5d2d3c3)"><path fill="#ecb228" d="M 244.894531 165.613281 L 236.144531 165.613281 C 235.902344 165.613281 235.707031 165.808594 235.707031 166.050781 L 235.707031 174.804688 C 235.707031 175.042969 235.902344 175.242188 236.144531 175.242188 L 244.894531 175.242188 C 245.136719 175.242188 245.332031 175.042969 245.332031 174.804688 L 245.332031 166.050781 C 245.332031 165.808594 245.136719 165.613281 244.894531 165.613281 Z M 244.894531 165.613281 " fill-opacity="1" fill-rule="nonzero"/></g><g clip-path="url(#af2f1deda6)"><path fill="#ecb228" d="M 257.148438 165.613281 L 248.394531 165.613281 C 248.152344 165.613281 247.957031 165.808594 247.957031 166.050781 L 247.957031 174.804688 C 247.957031 175.042969 248.152344 175.242188 248.394531 175.242188 L 257.148438 175.242188 C 257.390625 175.242188 257.585938 175.042969 257.585938 174.804688 L 257.585938 166.050781 C 257.585938 165.808594 257.390625 165.613281 257.148438 165.613281 Z M 257.148438 165.613281 " fill-opacity="1" fill-rule="nonzero"/></g><g clip-path="url(#555ddb27e4)"><path fill="#ecb228" d="M 244.894531 177.867188 L 236.144531 177.867188 C 235.902344 177.867188 235.707031 178.0625 235.707031 178.304688 L 235.707031 187.054688 C 235.707031 187.296875 235.902344 187.492188 236.144531 187.492188 L 244.894531 187.492188 C 245.136719 187.492188 245.332031 187.296875 245.332031 187.054688 L 245.332031 178.304688 C 245.332031 178.0625 245.136719 177.867188 244.894531 177.867188 Z M 244.894531 177.867188 " fill-opacity="1" fill-rule="nonzero"/></g><g clip-path="url(#ec742e66af)"><path fill="#ecb228" d="M 257.148438 177.867188 L 248.394531 177.867188 C 248.152344 177.867188 247.957031 178.0625 247.957031 178.304688 L 247.957031 187.054688 C 247.957031 187.296875 248.152344 187.492188 248.394531 187.492188 L 257.148438 187.492188 C 257.390625 187.492188 257.585938 187.296875 257.585938 187.054688 L 257.585938 178.304688 C 257.585938 178.0625 257.390625 177.867188 257.148438 177.867188 Z M 257.148438 177.867188 " fill-opacity="1" fill-rule="nonzero"/></g><g clip-path="url(#542a54cadc)"><path fill="#ecb228" d="M 171.449219 84.082031 C 171.449219 83.941406 171.421875 83.804688 171.367188 83.675781 C 171.3125 83.542969 171.238281 83.429688 171.136719 83.328125 C 171.035156 83.226562 170.921875 83.152344 170.789062 83.097656 C 170.660156 83.042969 170.523438 83.015625 170.382812 83.015625 L 163.976562 83.015625 C 163.835938 83.015625 163.699219 83.042969 163.566406 83.097656 C 163.4375 83.152344 163.320312 83.226562 163.222656 83.328125 C 163.121094 83.429688 163.042969 83.542969 162.988281 83.675781 C 162.933594 83.804688 162.910156 83.941406 162.910156 84.082031 L 162.910156 90.488281 C 162.910156 90.628906 162.933594 90.765625 162.988281 90.898438 C 163.042969 91.027344 163.121094 91.144531 163.222656 91.242188 C 163.320312 91.34375 163.4375 91.421875 163.566406 91.476562 C 163.699219 91.527344 163.835938 91.554688 163.976562 91.554688 L 170.382812 91.554688 C 170.523438 91.554688 170.660156 91.527344 170.789062 91.476562 C 170.921875 91.421875 171.035156 91.34375 171.136719 91.242188 C 171.238281 91.144531 171.3125 91.027344 171.367188 90.898438 C 171.421875 90.765625 171.449219 90.628906 171.449219 90.488281 Z M 169.3125 89.421875 L 165.042969 89.421875 L 165.042969 85.152344 L 169.3125 85.152344 Z M 174.652344 83.015625 C 174.511719 83.015625 174.375 83.042969 174.242188 83.097656 C 174.113281 83.152344 173.996094 83.226562 173.898438 83.328125 C 173.796875 83.429688 173.71875 83.542969 173.664062 83.675781 C 173.609375 83.804688 173.585938 83.941406 173.585938 84.082031 L 173.585938 90.488281 C 173.585938 90.628906 173.609375 90.765625 173.664062 90.898438 C 173.71875 91.027344 173.796875 91.144531 173.898438 91.242188 C 173.996094 91.34375 174.113281 91.421875 174.242188 91.476562 C 174.375 91.527344 174.511719 91.554688 174.652344 91.554688 L 181.058594 91.554688 C 181.199219 91.554688 181.335938 91.527344 181.464844 91.476562 C 181.597656 91.421875 181.710938 91.34375 181.8125 91.242188 C 181.914062 91.144531 181.988281 91.027344 182.042969 90.898438 C 182.097656 90.765625 182.125 90.628906 182.125 90.488281 L 182.125 84.082031 C 182.125 83.941406 182.097656 83.804688 182.042969 83.675781 C 181.988281 83.542969 181.914062 83.429688 181.8125 83.328125 C 181.710938 83.226562 181.597656 83.152344 181.464844 83.097656 C 181.335938 83.042969 181.199219 83.015625 181.058594 83.015625 Z M 179.988281 89.421875 L 175.71875 89.421875 L 175.71875 85.152344 L 179.988281 85.152344 Z M 160.773438 94.757812 C 160.773438 94.617188 160.746094 94.480469 160.691406 94.351562 C 160.636719 94.21875 160.5625 94.105469 160.460938 94.003906 C 160.359375 93.902344 160.246094 93.828125 160.113281 93.773438 C 159.984375 93.71875 159.847656 93.691406 159.707031 93.691406 L 153.300781 93.691406 C 153.160156 93.691406 153.023438 93.71875 152.890625 93.773438 C 152.761719 93.828125 152.644531 93.902344 152.546875 94.003906 C 152.445312 94.105469 152.367188 94.21875 152.3125 94.351562 C 152.257812 94.480469 152.234375 94.617188 152.234375 94.757812 L 152.234375 101.164062 C 152.234375 101.304688 152.257812 101.441406 152.3125 101.574219 C 152.367188 101.703125 152.445312 101.820312 152.546875 101.917969 C 152.644531 102.019531 152.761719 102.097656 152.890625 102.152344 C 153.023438 102.203125 153.160156 102.230469 153.300781 102.230469 L 159.707031 102.230469 C 159.847656 102.230469 159.984375 102.203125 160.113281 102.152344 C 160.246094 102.097656 160.359375 102.019531 160.460938 101.917969 C 160.5625 101.820312 160.636719 101.703125 160.691406 101.574219 C 160.746094 101.441406 160.773438 101.304688 160.773438 101.164062 Z M 158.636719 100.097656 L 154.367188 100.097656 L 154.367188 95.828125 L 158.636719 95.828125 Z M 171.449219 94.757812 C 171.449219 94.617188 171.421875 94.480469 171.367188 94.351562 C 171.3125 94.21875 171.238281 94.105469 171.136719 94.003906 C 171.035156 93.902344 170.921875 93.828125 170.789062 93.773438 C 170.660156 93.71875 170.523438 93.691406 170.382812 93.691406 L 163.976562 93.691406 C 163.835938 93.691406 163.699219 93.71875 163.566406 93.773438 C 163.4375 93.828125 163.320312 93.902344 163.222656 94.003906 C 163.121094 94.105469 163.042969 94.21875 162.988281 94.351562 C 162.933594 94.480469 162.910156 94.617188 162.910156 94.757812 L 162.910156 101.164062 C 162.910156 101.304688 162.933594 101.441406 162.988281 101.574219 C 163.042969 101.703125 163.121094 101.820312 163.222656 101.917969 C 163.320312 102.019531 163.4375 102.097656 163.566406 102.152344 C 163.699219 102.203125 163.835938 102.230469 163.976562 102.230469 L 170.382812 102.230469 C 170.523438 102.230469 170.660156 102.203125 170.789062 102.152344 C 170.921875 102.097656 171.035156 102.019531 171.136719 101.917969 C 171.238281 101.820312 171.3125 101.703125 171.367188 101.574219 C 171.421875 101.441406 171.449219 101.304688 171.449219 101.164062 Z M 169.3125 100.097656 L 165.042969 100.097656 L 165.042969 95.828125 L 169.3125 95.828125 Z M 159.707031 104.367188 L 153.300781 104.367188 C 153.160156 104.367188 153.023438 104.394531 152.890625 104.449219 C 152.761719 104.503906 152.644531 104.578125 152.546875 104.679688 C 152.445312 104.78125 152.367188 104.894531 152.3125 105.027344 C 152.257812 105.15625 152.234375 105.292969 152.234375 105.433594 L 152.234375 111.839844 C 152.234375 111.980469 152.257812 112.117188 152.3125 112.25 C 152.367188 112.378906 152.445312 112.496094 152.546875 112.59375 C 152.644531 112.695312 152.761719 112.773438 152.890625 112.828125 C 153.023438 112.878906 153.160156 112.90625 153.300781 112.90625 L 159.707031 112.90625 C 159.847656 112.90625 159.984375 112.878906 160.113281 112.828125 C 160.246094 112.773438 160.359375 112.695312 160.460938 112.59375 C 160.5625 112.496094 160.636719 112.378906 160.691406 112.25 C 160.746094 112.117188 160.773438 111.980469 160.773438 111.839844 L 160.773438 105.433594 C 160.773438 105.292969 160.746094 105.15625 160.691406 105.027344 C 160.636719 104.894531 160.5625 104.78125 160.460938 104.679688 C 160.359375 104.578125 160.246094 104.503906 160.113281 104.449219 C 159.984375 104.394531 159.847656 104.367188 159.707031 104.367188 Z M 158.636719 110.773438 L 154.367188 110.773438 L 154.367188 106.503906 L 158.636719 106.503906 Z M 170.382812 104.367188 L 163.976562 104.367188 C 163.835938 104.367188 163.699219 104.394531 163.566406 104.449219 C 163.4375 104.503906 163.320312 104.578125 163.222656 104.679688 C 163.121094 104.78125 163.042969 104.894531 162.988281 105.027344 C 162.933594 105.15625 162.910156 105.292969 162.910156 105.433594 L 162.910156 111.839844 C 162.910156 111.980469 162.933594 112.117188 162.988281 112.25 C 163.042969 112.378906 163.121094 112.496094 163.222656 112.59375 C 163.320312 112.695312 163.4375 112.773438 163.566406 112.828125 C 163.699219 112.878906 163.835938 112.90625 163.976562 112.90625 L 170.382812 112.90625 C 170.523438 112.90625 170.660156 112.878906 170.789062 112.828125 C 170.921875 112.773438 171.035156 112.695312 171.136719 112.59375 C 171.238281 112.496094 171.3125 112.378906 171.367188 112.25 C 171.421875 112.117188 171.449219 111.980469 171.449219 111.839844 L 171.449219 105.433594 C 171.449219 105.292969 171.421875 105.15625 171.367188 105.027344 C 171.3125 104.894531 171.238281 104.78125 171.136719 104.679688 C 171.035156 104.578125 170.921875 104.503906 170.789062 104.449219 C 170.660156 104.394531 170.523438 104.367188 170.382812 104.367188 Z M 169.3125 110.773438 L 165.042969 110.773438 L 165.042969 106.503906 L 169.3125 106.503906 Z M 191.734375 90.488281 C 191.140625 90.488281 190.546875 90.519531 189.953125 90.574219 C 189.363281 90.632812 188.777344 90.722656 188.191406 90.835938 C 187.609375 90.953125 187.035156 91.097656 186.464844 91.269531 C 185.894531 91.441406 185.335938 91.640625 184.789062 91.871094 C 184.238281 92.097656 183.703125 92.351562 183.179688 92.632812 C 182.652344 92.910156 182.144531 93.21875 181.648438 93.546875 C 181.15625 93.878906 180.679688 94.230469 180.21875 94.609375 C 179.761719 94.984375 179.320312 95.382812 178.898438 95.804688 C 178.480469 96.222656 178.082031 96.664062 177.703125 97.125 C 177.328125 97.582031 176.972656 98.058594 176.644531 98.554688 C 176.3125 99.046875 176.007812 99.558594 175.726562 100.082031 C 175.445312 100.605469 175.191406 101.144531 174.964844 101.691406 C 174.738281 102.242188 174.539062 102.800781 174.367188 103.367188 C 174.191406 103.9375 174.050781 104.515625 173.933594 105.097656 C 173.816406 105.679688 173.730469 106.265625 173.671875 106.859375 C 173.613281 107.449219 173.585938 108.042969 173.585938 108.636719 C 173.585938 109.230469 173.613281 109.824219 173.671875 110.417969 C 173.730469 111.007812 173.816406 111.59375 173.933594 112.179688 C 174.050781 112.761719 174.191406 113.335938 174.367188 113.90625 C 174.539062 114.472656 174.738281 115.035156 174.964844 115.582031 C 175.191406 116.132812 175.445312 116.667969 175.726562 117.191406 C 176.007812 117.71875 176.3125 118.226562 176.644531 118.71875 C 176.972656 119.214844 177.328125 119.691406 177.703125 120.152344 C 178.082031 120.609375 178.480469 121.050781 178.898438 121.46875 C 179.320312 121.890625 179.761719 122.289062 180.21875 122.667969 C 180.679688 123.042969 181.15625 123.398438 181.648438 123.726562 C 182.144531 124.058594 182.652344 124.363281 183.179688 124.644531 C 183.703125 124.921875 184.238281 125.175781 184.789062 125.40625 C 185.335938 125.632812 185.894531 125.832031 186.464844 126.003906 C 187.035156 126.175781 187.609375 126.320312 188.191406 126.4375 C 188.777344 126.554688 189.363281 126.640625 189.953125 126.699219 C 190.546875 126.757812 191.140625 126.785156 191.734375 126.785156 C 192.328125 126.785156 192.921875 126.757812 193.511719 126.699219 C 194.105469 126.640625 194.691406 126.554688 195.273438 126.4375 C 195.855469 126.320312 196.433594 126.175781 197 126.003906 C 197.570312 125.832031 198.128906 125.632812 198.679688 125.40625 C 199.226562 125.175781 199.765625 124.921875 200.289062 124.644531 C 200.8125 124.363281 201.320312 124.058594 201.816406 123.726562 C 202.308594 123.398438 202.789062 123.042969 203.246094 122.667969 C 203.707031 122.289062 204.144531 121.890625 204.566406 121.46875 C 204.988281 121.050781 205.386719 120.609375 205.761719 120.152344 C 206.140625 119.691406 206.492188 119.214844 206.824219 118.71875 C 207.152344 118.226562 207.457031 117.71875 207.738281 117.191406 C 208.019531 116.667969 208.273438 116.132812 208.5 115.582031 C 208.726562 115.035156 208.929688 114.472656 209.101562 113.90625 C 209.273438 113.335938 209.417969 112.761719 209.535156 112.179688 C 209.648438 111.59375 209.734375 111.007812 209.792969 110.417969 C 209.851562 109.824219 209.882812 109.230469 209.882812 108.636719 C 209.882812 108.042969 209.851562 107.449219 209.792969 106.859375 C 209.734375 106.269531 209.644531 105.679688 209.53125 105.097656 C 209.414062 104.515625 209.269531 103.941406 209.097656 103.371094 C 208.921875 102.804688 208.722656 102.242188 208.496094 101.695312 C 208.265625 101.144531 208.011719 100.609375 207.734375 100.085938 C 207.453125 99.5625 207.148438 99.054688 206.816406 98.558594 C 206.488281 98.066406 206.132812 97.589844 205.757812 97.128906 C 205.378906 96.671875 204.980469 96.230469 204.558594 95.808594 C 204.140625 95.390625 203.699219 94.992188 203.242188 94.613281 C 202.78125 94.238281 202.304688 93.882812 201.8125 93.554688 C 201.316406 93.222656 200.808594 92.917969 200.285156 92.636719 C 199.761719 92.355469 199.222656 92.101562 198.675781 91.875 C 198.125 91.648438 197.566406 91.449219 197 91.273438 C 196.429688 91.101562 195.855469 90.957031 195.273438 90.839844 C 194.691406 90.722656 194.101562 90.636719 193.511719 90.578125 C 192.921875 90.519531 192.328125 90.488281 191.734375 90.488281 Z M 191.734375 124.652344 C 191.207031 124.652344 190.683594 124.625 190.164062 124.574219 C 189.640625 124.523438 189.125 124.445312 188.609375 124.34375 C 188.09375 124.242188 187.585938 124.113281 187.085938 123.960938 C 186.582031 123.808594 186.089844 123.632812 185.605469 123.433594 C 185.121094 123.230469 184.648438 123.007812 184.183594 122.761719 C 183.722656 122.511719 183.273438 122.242188 182.835938 121.953125 C 182.398438 121.660156 181.980469 121.347656 181.574219 121.015625 C 181.167969 120.683594 180.78125 120.332031 180.410156 119.960938 C 180.039062 119.589844 179.6875 119.203125 179.355469 118.796875 C 179.023438 118.390625 178.710938 117.96875 178.417969 117.535156 C 178.125 117.097656 177.859375 116.648438 177.609375 116.1875 C 177.363281 115.722656 177.140625 115.25 176.9375 114.765625 C 176.738281 114.28125 176.5625 113.789062 176.410156 113.285156 C 176.257812 112.785156 176.128906 112.277344 176.027344 111.761719 C 175.925781 111.246094 175.847656 110.730469 175.796875 110.207031 C 175.746094 109.683594 175.71875 109.160156 175.71875 108.636719 C 175.71875 108.113281 175.746094 107.589844 175.796875 107.066406 C 175.847656 106.546875 175.925781 106.027344 176.027344 105.511719 C 176.128906 105 176.257812 104.492188 176.410156 103.988281 C 176.5625 103.488281 176.738281 102.992188 176.9375 102.507812 C 177.140625 102.023438 177.363281 101.550781 177.609375 101.089844 C 177.859375 100.625 178.125 100.175781 178.417969 99.742188 C 178.710938 99.304688 179.023438 98.882812 179.355469 98.476562 C 179.6875 98.074219 180.039062 97.683594 180.410156 97.3125 C 180.78125 96.941406 181.167969 96.589844 181.574219 96.257812 C 181.980469 95.925781 182.398438 95.613281 182.835938 95.324219 C 183.273438 95.03125 183.722656 94.761719 184.183594 94.515625 C 184.648438 94.265625 185.121094 94.042969 185.605469 93.84375 C 186.089844 93.640625 186.582031 93.464844 187.085938 93.3125 C 187.585938 93.160156 188.09375 93.035156 188.609375 92.929688 C 189.125 92.828125 189.640625 92.753906 190.164062 92.699219 C 190.683594 92.648438 191.207031 92.625 191.734375 92.625 C 192.257812 92.625 192.78125 92.648438 193.300781 92.699219 C 193.824219 92.753906 194.34375 92.828125 194.855469 92.929688 C 195.371094 93.035156 195.878906 93.160156 196.382812 93.3125 C 196.882812 93.464844 197.375 93.640625 197.859375 93.84375 C 198.347656 94.042969 198.820312 94.265625 199.28125 94.515625 C 199.746094 94.761719 200.195312 95.03125 200.628906 95.324219 C 201.066406 95.613281 201.488281 95.925781 201.890625 96.257812 C 202.296875 96.589844 202.6875 96.941406 203.054688 97.3125 C 203.425781 97.683594 203.777344 98.074219 204.113281 98.476562 C 204.445312 98.882812 204.757812 99.304688 205.046875 99.742188 C 205.339844 100.175781 205.609375 100.625 205.855469 101.089844 C 206.101562 101.550781 206.328125 102.023438 206.527344 102.507812 C 206.730469 102.992188 206.90625 103.488281 207.058594 103.988281 C 207.210938 104.492188 207.335938 105 207.4375 105.511719 C 207.542969 106.027344 207.617188 106.546875 207.667969 107.066406 C 207.722656 107.589844 207.746094 108.113281 207.746094 108.636719 C 207.746094 109.160156 207.71875 109.683594 207.667969 110.207031 C 207.617188 110.726562 207.539062 111.246094 207.4375 111.761719 C 207.332031 112.273438 207.207031 112.78125 207.054688 113.285156 C 206.902344 113.785156 206.722656 114.277344 206.523438 114.761719 C 206.320312 115.246094 206.097656 115.71875 205.851562 116.183594 C 205.601562 116.644531 205.332031 117.09375 205.042969 117.53125 C 204.75 117.964844 204.4375 118.386719 204.105469 118.792969 C 203.773438 119.195312 203.421875 119.585938 203.050781 119.957031 C 202.679688 120.328125 202.292969 120.679688 201.886719 121.011719 C 201.480469 121.34375 201.0625 121.65625 200.625 121.945312 C 200.191406 122.238281 199.742188 122.507812 199.277344 122.753906 C 198.816406 123.003906 198.34375 123.226562 197.859375 123.425781 C 197.375 123.628906 196.882812 123.804688 196.378906 123.957031 C 195.878906 124.109375 195.371094 124.238281 194.855469 124.339844 C 194.34375 124.441406 193.824219 124.519531 193.300781 124.574219 C 192.78125 124.625 192.257812 124.652344 191.734375 124.652344 Z M 172.515625 117.179688 L 151.164062 117.179688 C 150.742188 117.175781 150.332031 117.097656 149.941406 116.933594 C 149.546875 116.769531 149.203125 116.539062 148.902344 116.238281 C 148.601562 115.9375 148.371094 115.59375 148.207031 115.199219 C 148.042969 114.808594 147.960938 114.398438 147.960938 113.976562 L 147.960938 78.746094 L 197.070312 78.746094 L 197.070312 88.351562 C 197.070312 88.496094 197.097656 88.632812 197.152344 88.761719 C 197.207031 88.894531 197.285156 89.007812 197.382812 89.109375 C 197.484375 89.207031 197.597656 89.285156 197.730469 89.339844 C 197.859375 89.394531 197.996094 89.421875 198.136719 89.421875 C 198.28125 89.421875 198.417969 89.394531 198.546875 89.339844 C 198.679688 89.285156 198.792969 89.207031 198.894531 89.109375 C 198.992188 89.007812 199.070312 88.894531 199.125 88.761719 C 199.179688 88.632812 199.207031 88.496094 199.207031 88.351562 L 199.207031 73.40625 C 199.207031 73.058594 199.171875 72.710938 199.101562 72.367188 C 199.035156 72.023438 198.933594 71.6875 198.796875 71.367188 C 198.664062 71.042969 198.5 70.734375 198.304688 70.441406 C 198.109375 70.152344 197.886719 69.882812 197.640625 69.632812 C 197.394531 69.386719 197.125 69.164062 196.832031 68.972656 C 196.542969 68.777344 196.234375 68.613281 195.910156 68.476562 C 195.585938 68.34375 195.253906 68.242188 194.910156 68.171875 C 194.566406 68.105469 194.21875 68.070312 193.867188 68.070312 L 190.664062 68.070312 L 190.664062 65.933594 C 190.664062 65.507812 190.585938 65.101562 190.421875 64.707031 C 190.257812 64.316406 190.027344 63.96875 189.726562 63.667969 C 189.425781 63.371094 189.082031 63.136719 188.6875 62.976562 C 188.296875 62.8125 187.886719 62.730469 187.460938 62.730469 C 187.039062 62.730469 186.628906 62.8125 186.238281 62.976562 C 185.84375 63.136719 185.5 63.371094 185.199219 63.667969 C 184.898438 63.96875 184.667969 64.316406 184.503906 64.707031 C 184.339844 65.101562 184.261719 65.507812 184.261719 65.933594 L 184.261719 68.070312 L 175.71875 68.070312 L 175.71875 65.933594 C 175.71875 65.507812 175.636719 65.101562 175.476562 64.707031 C 175.3125 64.316406 175.082031 63.96875 174.78125 63.667969 C 174.480469 63.371094 174.132812 63.136719 173.742188 62.976562 C 173.351562 62.8125 172.941406 62.730469 172.515625 62.730469 C 172.09375 62.730469 171.683594 62.8125 171.292969 62.976562 C 170.898438 63.136719 170.550781 63.371094 170.253906 63.667969 C 169.953125 63.96875 169.71875 64.316406 169.558594 64.707031 C 169.394531 65.101562 169.3125 65.507812 169.3125 65.933594 L 169.3125 68.070312 L 160.773438 68.070312 L 160.773438 65.933594 C 160.773438 65.507812 160.691406 65.101562 160.53125 64.707031 C 160.367188 64.316406 160.136719 63.96875 159.835938 63.667969 C 159.535156 63.371094 159.1875 63.136719 158.796875 62.976562 C 158.402344 62.8125 157.996094 62.730469 157.570312 62.730469 C 157.144531 62.730469 156.738281 62.8125 156.34375 62.976562 C 155.953125 63.136719 155.605469 63.371094 155.304688 63.667969 C 155.003906 63.96875 154.773438 64.316406 154.613281 64.707031 C 154.449219 65.101562 154.367188 65.507812 154.367188 65.933594 L 154.367188 68.070312 L 151.164062 68.070312 C 150.816406 68.070312 150.46875 68.105469 150.125 68.171875 C 149.78125 68.242188 149.445312 68.34375 149.125 68.476562 C 148.800781 68.613281 148.492188 68.777344 148.199219 68.972656 C 147.910156 69.164062 147.640625 69.386719 147.390625 69.632812 C 147.144531 69.882812 146.921875 70.152344 146.730469 70.441406 C 146.535156 70.734375 146.371094 71.042969 146.234375 71.367188 C 146.101562 71.6875 146 72.023438 145.929688 72.367188 C 145.863281 72.710938 145.828125 73.058594 145.828125 73.40625 L 145.828125 113.976562 C 145.828125 114.324219 145.863281 114.671875 145.929688 115.015625 C 146 115.359375 146.101562 115.691406 146.234375 116.015625 C 146.371094 116.339844 146.535156 116.648438 146.730469 116.9375 C 146.921875 117.230469 147.144531 117.5 147.390625 117.746094 C 147.640625 117.996094 147.910156 118.21875 148.199219 118.410156 C 148.492188 118.605469 148.800781 118.769531 149.125 118.90625 C 149.445312 119.039062 149.78125 119.140625 150.125 119.210938 C 150.46875 119.277344 150.816406 119.3125 151.164062 119.3125 L 172.515625 119.3125 C 172.660156 119.3125 172.792969 119.285156 172.925781 119.230469 C 173.054688 119.175781 173.171875 119.101562 173.273438 119 C 173.371094 118.898438 173.449219 118.785156 173.503906 118.652344 C 173.558594 118.523438 173.585938 118.386719 173.585938 118.246094 C 173.585938 118.105469 173.558594 117.96875 173.503906 117.835938 C 173.449219 117.707031 173.371094 117.589844 173.273438 117.492188 C 173.171875 117.390625 173.054688 117.3125 172.925781 117.257812 C 172.792969 117.203125 172.660156 117.179688 172.515625 117.179688 Z M 186.394531 65.933594 C 186.394531 65.792969 186.421875 65.65625 186.476562 65.527344 C 186.53125 65.394531 186.609375 65.28125 186.707031 65.179688 C 186.808594 65.078125 186.921875 65.003906 187.054688 64.949219 C 187.183594 64.894531 187.320312 64.867188 187.460938 64.867188 C 187.605469 64.867188 187.742188 64.894531 187.871094 64.949219 C 188.003906 65.003906 188.117188 65.078125 188.21875 65.179688 C 188.316406 65.28125 188.394531 65.394531 188.449219 65.527344 C 188.503906 65.65625 188.53125 65.792969 188.53125 65.933594 L 188.53125 71.273438 C 188.53125 71.414062 188.503906 71.550781 188.449219 71.679688 C 188.394531 71.8125 188.316406 71.925781 188.21875 72.027344 C 188.117188 72.128906 188.003906 72.203125 187.871094 72.257812 C 187.742188 72.3125 187.605469 72.339844 187.460938 72.339844 C 187.320312 72.339844 187.183594 72.3125 187.054688 72.257812 C 186.921875 72.203125 186.808594 72.128906 186.707031 72.027344 C 186.609375 71.925781 186.53125 71.8125 186.476562 71.679688 C 186.421875 71.550781 186.394531 71.414062 186.394531 71.273438 Z M 171.449219 65.933594 C 171.449219 65.792969 171.476562 65.65625 171.53125 65.527344 C 171.585938 65.394531 171.660156 65.28125 171.761719 65.179688 C 171.863281 65.078125 171.976562 65.003906 172.109375 64.949219 C 172.238281 64.894531 172.375 64.867188 172.515625 64.867188 C 172.660156 64.867188 172.792969 64.894531 172.925781 64.949219 C 173.054688 65.003906 173.171875 65.078125 173.273438 65.179688 C 173.371094 65.28125 173.449219 65.394531 173.503906 65.527344 C 173.558594 65.65625 173.585938 65.792969 173.585938 65.933594 L 173.585938 71.273438 C 173.585938 71.414062 173.558594 71.550781 173.503906 71.679688 C 173.449219 71.8125 173.371094 71.925781 173.273438 72.027344 C 173.171875 72.128906 173.054688 72.203125 172.925781 72.257812 C 172.792969 72.3125 172.660156 72.339844 172.515625 72.339844 C 172.375 72.339844 172.238281 72.3125 172.109375 72.257812 C 171.976562 72.203125 171.863281 72.128906 171.761719 72.027344 C 171.660156 71.925781 171.585938 71.8125 171.53125 71.679688 C 171.476562 71.550781 171.449219 71.414062 171.449219 71.273438 Z M 156.503906 65.933594 C 156.503906 65.792969 156.53125 65.65625 156.585938 65.527344 C 156.636719 65.394531 156.714844 65.28125 156.816406 65.179688 C 156.914062 65.078125 157.03125 65.003906 157.160156 64.949219 C 157.292969 64.894531 157.429688 64.867188 157.570312 64.867188 C 157.710938 64.867188 157.847656 64.894531 157.980469 64.949219 C 158.109375 65.003906 158.226562 65.078125 158.324219 65.179688 C 158.425781 65.28125 158.503906 65.394531 158.558594 65.527344 C 158.609375 65.65625 158.636719 65.792969 158.636719 65.933594 L 158.636719 71.273438 C 158.636719 71.414062 158.609375 71.550781 158.558594 71.679688 C 158.503906 71.8125 158.425781 71.925781 158.324219 72.027344 C 158.226562 72.128906 158.109375 72.203125 157.980469 72.257812 C 157.847656 72.3125 157.710938 72.339844 157.570312 72.339844 C 157.429688 72.339844 157.292969 72.3125 157.160156 72.257812 C 157.03125 72.203125 156.914062 72.128906 156.816406 72.027344 C 156.714844 71.925781 156.636719 71.8125 156.585938 71.679688 C 156.53125 71.550781 156.503906 71.414062 156.503906 71.273438 Z M 151.164062 70.203125 L 154.367188 70.203125 L 154.367188 71.273438 C 154.367188 71.695312 154.449219 72.105469 154.613281 72.496094 C 154.773438 72.890625 155.003906 73.238281 155.304688 73.535156 C 155.605469 73.835938 155.953125 74.070312 156.34375 74.230469 C 156.738281 74.394531 157.144531 74.476562 157.570312 74.476562 C 157.996094 74.476562 158.402344 74.394531 158.796875 74.230469 C 159.1875 74.070312 159.535156 73.835938 159.835938 73.535156 C 160.136719 73.238281 160.367188 72.890625 160.53125 72.496094 C 160.691406 72.105469 160.773438 71.695312 160.773438 71.273438 L 160.773438 70.203125 L 169.3125 70.203125 L 169.3125 71.273438 C 169.3125 71.695312 169.394531 72.105469 169.558594 72.496094 C 169.71875 72.890625 169.953125 73.238281 170.253906 73.535156 C 170.550781 73.835938 170.898438 74.070312 171.292969 74.230469 C 171.683594 74.394531 172.09375 74.476562 172.515625 74.476562 C 172.941406 74.476562 173.351562 74.394531 173.742188 74.230469 C 174.132812 74.070312 174.480469 73.835938 174.78125 73.535156 C 175.082031 73.238281 175.3125 72.890625 175.476562 72.496094 C 175.636719 72.105469 175.71875 71.695312 175.71875 71.273438 L 175.71875 70.203125 L 184.261719 70.203125 L 184.261719 71.273438 C 184.261719 71.695312 184.339844 72.105469 184.503906 72.496094 C 184.667969 72.890625 184.898438 73.238281 185.199219 73.535156 C 185.5 73.835938 185.84375 74.070312 186.238281 74.230469 C 186.628906 74.394531 187.039062 74.476562 187.460938 74.476562 C 187.886719 74.476562 188.296875 74.394531 188.6875 74.230469 C 189.082031 74.070312 189.425781 73.835938 189.726562 73.535156 C 190.027344 73.238281 190.257812 72.890625 190.421875 72.496094 C 190.585938 72.105469 190.664062 71.695312 190.664062 71.273438 L 190.664062 70.203125 L 193.867188 70.203125 C 194.292969 70.203125 194.703125 70.285156 195.09375 70.449219 C 195.484375 70.613281 195.832031 70.84375 196.132812 71.144531 C 196.433594 71.445312 196.664062 71.789062 196.828125 72.183594 C 196.988281 72.574219 197.070312 72.984375 197.070312 73.40625 L 197.070312 76.609375 L 147.960938 76.609375 L 147.960938 73.40625 C 147.960938 72.984375 148.042969 72.574219 148.207031 72.183594 C 148.371094 71.789062 148.601562 71.445312 148.902344 71.144531 C 149.203125 70.84375 149.546875 70.613281 149.941406 70.449219 C 150.332031 70.285156 150.742188 70.203125 151.164062 70.203125 Z M 190.664062 87.285156 L 190.664062 85.152344 L 186.394531 85.152344 L 186.394531 88.265625 C 186.394531 88.40625 186.367188 88.542969 186.3125 88.675781 C 186.261719 88.804688 186.183594 88.921875 186.082031 89.019531 C 185.984375 89.121094 185.867188 89.199219 185.734375 89.253906 C 185.605469 89.308594 185.46875 89.332031 185.328125 89.332031 C 185.1875 89.332031 185.050781 89.308594 184.917969 89.253906 C 184.789062 89.199219 184.671875 89.121094 184.574219 89.019531 C 184.472656 88.921875 184.394531 88.804688 184.339844 88.675781 C 184.289062 88.542969 184.261719 88.40625 184.261719 88.265625 L 184.261719 84.082031 C 184.261719 83.941406 184.285156 83.804688 184.339844 83.675781 C 184.394531 83.542969 184.472656 83.429688 184.574219 83.328125 C 184.671875 83.226562 184.789062 83.152344 184.917969 83.097656 C 185.050781 83.042969 185.1875 83.015625 185.328125 83.015625 L 191.734375 83.015625 C 191.875 83.015625 192.011719 83.042969 192.140625 83.097656 C 192.273438 83.152344 192.386719 83.226562 192.488281 83.328125 C 192.589844 83.429688 192.664062 83.542969 192.71875 83.675781 C 192.773438 83.804688 192.800781 83.941406 192.800781 84.082031 L 192.800781 87.285156 C 192.800781 87.425781 192.773438 87.5625 192.71875 87.695312 C 192.664062 87.824219 192.589844 87.941406 192.488281 88.039062 C 192.386719 88.140625 192.273438 88.21875 192.140625 88.273438 C 192.011719 88.328125 191.875 88.351562 191.734375 88.351562 C 191.589844 88.351562 191.457031 88.328125 191.324219 88.273438 C 191.195312 88.21875 191.078125 88.140625 190.976562 88.039062 C 190.878906 87.941406 190.800781 87.824219 190.746094 87.695312 C 190.691406 87.5625 190.664062 87.425781 190.664062 87.285156 Z M 191.734375 94.757812 C 190.820312 94.757812 189.917969 94.847656 189.027344 95.027344 C 188.132812 95.203125 187.265625 95.464844 186.421875 95.816406 C 185.582031 96.164062 184.78125 96.589844 184.023438 97.097656 C 183.265625 97.605469 182.5625 98.179688 181.917969 98.824219 C 181.273438 99.46875 180.699219 100.167969 180.195312 100.925781 C 179.6875 101.683594 179.257812 102.484375 178.910156 103.328125 C 178.5625 104.167969 178.300781 105.035156 178.121094 105.929688 C 177.945312 106.824219 177.855469 107.726562 177.855469 108.636719 C 177.855469 109.546875 177.945312 110.449219 178.121094 111.34375 C 178.300781 112.238281 178.5625 113.105469 178.910156 113.949219 C 179.257812 114.789062 179.6875 115.589844 180.195312 116.347656 C 180.699219 117.105469 181.273438 117.804688 181.917969 118.449219 C 182.5625 119.09375 183.265625 119.671875 184.023438 120.175781 C 184.78125 120.683594 185.582031 121.109375 186.421875 121.460938 C 187.265625 121.808594 188.132812 122.070312 189.027344 122.25 C 189.917969 122.425781 190.820312 122.515625 191.734375 122.515625 C 192.644531 122.515625 193.546875 122.425781 194.441406 122.25 C 195.335938 122.070312 196.203125 121.808594 197.042969 121.460938 C 197.886719 121.109375 198.6875 120.683594 199.445312 120.175781 C 200.203125 119.671875 200.902344 119.09375 201.546875 118.449219 C 202.191406 117.804688 202.765625 117.105469 203.273438 116.347656 C 203.777344 115.589844 204.207031 114.789062 204.554688 113.949219 C 204.902344 113.105469 205.167969 112.238281 205.34375 111.34375 C 205.523438 110.449219 205.613281 109.546875 205.613281 108.636719 C 205.609375 107.726562 205.519531 106.824219 205.34375 105.929688 C 205.164062 105.039062 204.898438 104.171875 204.550781 103.328125 C 204.203125 102.488281 203.773438 101.6875 203.269531 100.929688 C 202.761719 100.171875 202.1875 99.472656 201.542969 98.828125 C 200.898438 98.183594 200.195312 97.609375 199.441406 97.101562 C 198.683594 96.597656 197.882812 96.167969 197.042969 95.820312 C 196.199219 95.46875 195.332031 95.207031 194.441406 95.027344 C 193.546875 94.847656 192.644531 94.761719 191.734375 94.757812 Z M 192.800781 120.328125 L 192.800781 118.246094 C 192.800781 118.105469 192.773438 117.96875 192.71875 117.835938 C 192.664062 117.707031 192.589844 117.589844 192.488281 117.492188 C 192.386719 117.390625 192.273438 117.3125 192.140625 117.257812 C 192.011719 117.203125 191.875 117.179688 191.734375 117.179688 C 191.589844 117.179688 191.457031 117.203125 191.324219 117.257812 C 191.195312 117.3125 191.078125 117.390625 190.976562 117.492188 C 190.878906 117.589844 190.800781 117.707031 190.746094 117.835938 C 190.691406 117.96875 190.664062 118.105469 190.664062 118.246094 L 190.664062 120.328125 C 189.988281 120.265625 189.320312 120.144531 188.664062 119.964844 C 188.007812 119.785156 187.371094 119.550781 186.753906 119.261719 C 186.136719 118.972656 185.550781 118.632812 184.996094 118.242188 C 184.4375 117.851562 183.917969 117.414062 183.4375 116.933594 C 182.957031 116.453125 182.519531 115.933594 182.128906 115.375 C 181.738281 114.820312 181.398438 114.230469 181.109375 113.617188 C 180.820312 113 180.585938 112.363281 180.40625 111.707031 C 180.226562 111.050781 180.105469 110.382812 180.042969 109.703125 L 182.125 109.703125 C 182.265625 109.703125 182.402344 109.679688 182.535156 109.625 C 182.664062 109.570312 182.78125 109.492188 182.878906 109.390625 C 182.980469 109.292969 183.058594 109.175781 183.109375 109.046875 C 183.164062 108.914062 183.191406 108.777344 183.191406 108.636719 C 183.191406 108.496094 183.164062 108.359375 183.109375 108.230469 C 183.058594 108.097656 182.980469 107.984375 182.878906 107.882812 C 182.78125 107.78125 182.664062 107.707031 182.535156 107.652344 C 182.402344 107.597656 182.265625 107.570312 182.125 107.570312 L 180.042969 107.570312 C 180.105469 106.890625 180.226562 106.226562 180.40625 105.566406 C 180.585938 104.910156 180.820312 104.273438 181.109375 103.660156 C 181.398438 103.042969 181.738281 102.457031 182.128906 101.898438 C 182.519531 101.339844 182.957031 100.824219 183.4375 100.339844 C 183.917969 99.859375 184.4375 99.421875 184.996094 99.03125 C 185.550781 98.640625 186.136719 98.300781 186.753906 98.011719 C 187.371094 97.722656 188.007812 97.488281 188.664062 97.308594 C 189.320312 97.132812 189.988281 97.011719 190.664062 96.949219 L 190.664062 99.027344 C 190.664062 99.171875 190.691406 99.308594 190.746094 99.4375 C 190.800781 99.570312 190.878906 99.683594 190.976562 99.785156 C 191.078125 99.882812 191.195312 99.960938 191.324219 100.015625 C 191.457031 100.070312 191.589844 100.097656 191.734375 100.097656 C 191.875 100.097656 192.011719 100.070312 192.140625 100.015625 C 192.273438 99.960938 192.386719 99.882812 192.488281 99.785156 C 192.589844 99.683594 192.664062 99.570312 192.71875 99.4375 C 192.773438 99.308594 192.800781 99.171875 192.800781 99.027344 L 192.800781 96.949219 C 193.476562 97.011719 194.144531 97.132812 194.800781 97.308594 C 195.460938 97.488281 196.097656 97.722656 196.710938 98.011719 C 197.328125 98.300781 197.914062 98.640625 198.472656 99.03125 C 199.027344 99.421875 199.546875 99.859375 200.03125 100.339844 C 200.511719 100.824219 200.945312 101.339844 201.339844 101.898438 C 201.730469 102.457031 202.070312 103.042969 202.359375 103.660156 C 202.648438 104.273438 202.882812 104.910156 203.058594 105.566406 C 203.238281 106.226562 203.359375 106.890625 203.421875 107.570312 L 201.339844 107.570312 C 201.199219 107.570312 201.0625 107.597656 200.933594 107.652344 C 200.800781 107.707031 200.6875 107.78125 200.585938 107.882812 C 200.484375 107.984375 200.410156 108.097656 200.355469 108.230469 C 200.300781 108.359375 200.273438 108.496094 200.273438 108.636719 C 200.273438 108.777344 200.300781 108.914062 200.355469 109.046875 C 200.410156 109.175781 200.484375 109.292969 200.585938 109.390625 C 200.6875 109.492188 200.800781 109.570312 200.933594 109.625 C 201.0625 109.679688 201.199219 109.703125 201.339844 109.703125 L 203.421875 109.703125 C 203.359375 110.382812 203.238281 111.050781 203.058594 111.707031 C 202.882812 112.363281 202.648438 113 202.359375 113.617188 C 202.070312 114.230469 201.730469 114.820312 201.339844 115.375 C 200.945312 115.933594 200.511719 116.453125 200.03125 116.933594 C 199.546875 117.414062 199.027344 117.851562 198.472656 118.242188 C 197.914062 118.632812 197.328125 118.972656 196.710938 119.261719 C 196.097656 119.550781 195.460938 119.785156 194.800781 119.964844 C 194.144531 120.144531 193.476562 120.265625 192.800781 120.328125 Z M 195.691406 111.085938 C 195.792969 111.183594 195.871094 111.300781 195.925781 111.433594 C 195.980469 111.5625 196.007812 111.699219 196.011719 111.84375 C 196.011719 111.984375 195.984375 112.121094 195.929688 112.253906 C 195.875 112.382812 195.796875 112.5 195.699219 112.601562 C 195.597656 112.703125 195.480469 112.78125 195.347656 112.832031 C 195.21875 112.886719 195.082031 112.914062 194.9375 112.914062 C 194.796875 112.914062 194.660156 112.886719 194.527344 112.832031 C 194.394531 112.773438 194.28125 112.695312 194.179688 112.59375 L 190.976562 109.390625 C 190.769531 109.183594 190.664062 108.933594 190.664062 108.636719 L 190.664062 103.300781 C 190.664062 103.15625 190.691406 103.023438 190.746094 102.890625 C 190.800781 102.761719 190.878906 102.644531 190.976562 102.542969 C 191.078125 102.445312 191.195312 102.367188 191.324219 102.3125 C 191.457031 102.257812 191.589844 102.230469 191.734375 102.230469 C 191.875 102.230469 192.011719 102.257812 192.140625 102.3125 C 192.273438 102.367188 192.386719 102.445312 192.488281 102.542969 C 192.589844 102.644531 192.664062 102.761719 192.71875 102.890625 C 192.773438 103.023438 192.800781 103.15625 192.800781 103.300781 L 192.800781 108.195312 Z M 195.691406 111.085938 " fill-opacity="1" fill-rule="nonzero"/></g><g fill="#0e1c30" fill-opacity="1"><g transform="translate(0.651279, 288.079285)"><g><path d="M 2.28125 -24.375 C 2.28125 -29.175781 3.316406 -33.457031 5.390625 -37.21875 C 7.472656 -40.988281 10.375 -43.921875 14.09375 -46.015625 C 17.8125 -48.117188 22.023438 -49.171875 26.734375 -49.171875 C 32.503906 -49.171875 37.441406 -47.644531 41.546875 -44.59375 C 45.660156 -41.550781 48.410156 -37.398438 49.796875 -32.140625 L 36.78125 -32.140625 C 35.8125 -34.171875 34.4375 -35.71875 32.65625 -36.78125 C 30.875 -37.84375 28.851562 -38.375 26.59375 -38.375 C 22.945312 -38.375 19.992188 -37.101562 17.734375 -34.5625 C 15.472656 -32.019531 14.34375 -28.625 14.34375 -24.375 C 14.34375 -20.132812 15.472656 -16.742188 17.734375 -14.203125 C 19.992188 -11.660156 22.945312 -10.390625 26.59375 -10.390625 C 28.851562 -10.390625 30.875 -10.921875 32.65625 -11.984375 C 34.4375 -13.046875 35.8125 -14.59375 36.78125 -16.625 L 49.796875 -16.625 C 48.410156 -11.363281 45.660156 -7.21875 41.546875 -4.1875 C 37.441406 -1.164062 32.503906 0.34375 26.734375 0.34375 C 22.023438 0.34375 17.8125 -0.703125 14.09375 -2.796875 C 10.375 -4.898438 7.472656 -7.820312 5.390625 -11.5625 C 3.316406 -15.300781 2.28125 -19.570312 2.28125 -24.375 Z M 2.28125 -24.375 "/></g></g></g><g fill="#0e1c30" fill-opacity="1"><g transform="translate(57.92268, 288.079285)"><g><path d="M 34.5625 -8.59375 L 16.421875 -8.59375 L 13.5 0 L 1.109375 0 L 18.703125 -48.625 L 32.421875 -48.625 L 50.015625 0 L 37.46875 0 Z M 31.515625 -17.734375 L 25.484375 -35.53125 L 19.53125 -17.734375 Z M 31.515625 -17.734375 "/></g></g></g><g fill="#0e1c30" fill-opacity="1"><g transform="translate(113.462836, 288.079285)"><g><path d="M 16.140625 -9.140625 L 31.65625 -9.140625 L 31.65625 0 L 4.296875 0 L 4.296875 -48.625 L 16.140625 -48.625 Z M 16.140625 -9.140625 "/></g></g></g><g fill="#0e1c30" fill-opacity="1"><g transform="translate(150.998019, 288.079285)"><g><path d="M 22.515625 -48.625 C 27.640625 -48.625 32.117188 -47.609375 35.953125 -45.578125 C 39.785156 -43.546875 42.75 -40.691406 44.84375 -37.015625 C 46.945312 -33.347656 48 -29.113281 48 -24.3125 C 48 -19.550781 46.945312 -15.320312 44.84375 -11.625 C 42.75 -7.9375 39.769531 -5.078125 35.90625 -3.046875 C 32.050781 -1.015625 27.585938 0 22.515625 0 L 4.296875 0 L 4.296875 -48.625 Z M 21.75 -10.25 C 26.226562 -10.25 29.710938 -11.472656 32.203125 -13.921875 C 34.703125 -16.367188 35.953125 -19.832031 35.953125 -24.3125 C 35.953125 -28.789062 34.703125 -32.273438 32.203125 -34.765625 C 29.710938 -37.265625 26.226562 -38.515625 21.75 -38.515625 L 16.140625 -38.515625 L 16.140625 -10.25 Z M 21.75 -10.25 "/></g></g></g><g fill="#0e1c30" fill-opacity="1"><g transform="translate(205.845675, 288.079285)"><g><path d="M 21.890625 0.484375 C 18.328125 0.484375 15.140625 -0.09375 12.328125 -1.25 C 9.515625 -2.40625 7.265625 -4.113281 5.578125 -6.375 C 3.890625 -8.632812 3 -11.359375 2.90625 -14.546875 L 15.515625 -14.546875 C 15.703125 -12.742188 16.328125 -11.367188 17.390625 -10.421875 C 18.453125 -9.472656 19.835938 -9 21.546875 -9 C 23.296875 -9 24.675781 -9.398438 25.6875 -10.203125 C 26.707031 -11.015625 27.21875 -12.140625 27.21875 -13.578125 C 27.21875 -14.773438 26.8125 -15.765625 26 -16.546875 C 25.195312 -17.335938 24.207031 -17.984375 23.03125 -18.484375 C 21.851562 -18.992188 20.179688 -19.570312 18.015625 -20.21875 C 14.867188 -21.195312 12.300781 -22.171875 10.3125 -23.140625 C 8.332031 -24.109375 6.625 -25.535156 5.1875 -27.421875 C 3.757812 -29.316406 3.046875 -31.789062 3.046875 -34.84375 C 3.046875 -39.363281 4.6875 -42.90625 7.96875 -45.46875 C 11.25 -48.03125 15.519531 -49.3125 20.78125 -49.3125 C 26.132812 -49.3125 30.453125 -48.03125 33.734375 -45.46875 C 37.015625 -42.90625 38.769531 -39.335938 39 -34.765625 L 26.1875 -34.765625 C 26.09375 -36.335938 25.515625 -37.570312 24.453125 -38.46875 C 23.390625 -39.375 22.023438 -39.828125 20.359375 -39.828125 C 18.929688 -39.828125 17.773438 -39.445312 16.890625 -38.6875 C 16.015625 -37.925781 15.578125 -36.828125 15.578125 -35.390625 C 15.578125 -33.828125 16.316406 -32.601562 17.796875 -31.71875 C 19.273438 -30.84375 21.585938 -29.898438 24.734375 -28.890625 C 27.867188 -27.828125 30.414062 -26.804688 32.375 -25.828125 C 34.34375 -24.859375 36.039062 -23.453125 37.46875 -21.609375 C 38.90625 -19.765625 39.625 -17.382812 39.625 -14.46875 C 39.625 -11.707031 38.914062 -9.191406 37.5 -6.921875 C 36.09375 -4.660156 34.050781 -2.859375 31.375 -1.515625 C 28.695312 -0.179688 25.535156 0.484375 21.890625 0.484375 Z M 21.890625 0.484375 "/></g></g></g><g fill="#0e1c30" fill-opacity="1"><g transform="translate(252.937342, 288.079285)"><g><path d="M 39.28125 -48.625 L 39.28125 -39.140625 L 26.390625 -39.140625 L 26.390625 0 L 14.546875 0 L 14.546875 -39.140625 L 1.65625 -39.140625 L 1.65625 -48.625 Z M 39.28125 -48.625 "/></g></g></g><g fill="#0e1c30" fill-opacity="1"><g transform="translate(298.367003, 288.079285)"><g><path d="M 16.140625 -48.625 L 16.140625 0 L 4.296875 0 L 4.296875 -48.625 Z M 16.140625 -48.625 "/></g></g></g><g fill="#0e1c30" fill-opacity="1"><g transform="translate(323.298725, 288.079285)"><g><path d="M 34.5625 -8.59375 L 16.421875 -8.59375 L 13.5 0 L 1.109375 0 L 18.703125 -48.625 L 32.421875 -48.625 L 50.015625 0 L 37.46875 0 Z M 31.515625 -17.734375 L 25.484375 -35.53125 L 19.53125 -17.734375 Z M 31.515625 -17.734375 "/></g></g></g><g fill="#64677b" fill-opacity="1"><g transform="translate(76.38263, 321.226035)"><g><path d="M 13.171875 -10.5 C 13.171875 -9.601562 12.960938 -8.78125 12.546875 -8.03125 C 12.140625 -7.289062 11.507812 -6.691406 10.65625 -6.234375 C 9.800781 -5.785156 8.742188 -5.5625 7.484375 -5.5625 L 5.140625 -5.5625 L 5.140625 0 L 1.375 0 L 1.375 -15.484375 L 7.484375 -15.484375 C 8.710938 -15.484375 9.753906 -15.269531 10.609375 -14.84375 C 11.460938 -14.414062 12.101562 -13.828125 12.53125 -13.078125 C 12.957031 -12.328125 13.171875 -11.46875 13.171875 -10.5 Z M 7.1875 -8.5625 C 7.914062 -8.5625 8.453125 -8.726562 8.796875 -9.0625 C 9.148438 -9.40625 9.328125 -9.882812 9.328125 -10.5 C 9.328125 -11.113281 9.148438 -11.585938 8.796875 -11.921875 C 8.453125 -12.265625 7.914062 -12.4375 7.1875 -12.4375 L 5.140625 -12.4375 L 5.140625 -8.5625 Z M 7.1875 -8.5625 "/></g></g></g><g fill="#64677b" fill-opacity="1"><g transform="translate(92.939248, 321.226035)"><g><path d="M 5.140625 -2.90625 L 10.078125 -2.90625 L 10.078125 0 L 1.375 0 L 1.375 -15.484375 L 5.140625 -15.484375 Z M 5.140625 -2.90625 "/></g></g></g><g fill="#64677b" fill-opacity="1"><g transform="translate(106.255651, 321.226035)"><g><path d="M 11.015625 -2.734375 L 5.234375 -2.734375 L 4.296875 0 L 0.359375 0 L 5.953125 -15.484375 L 10.328125 -15.484375 L 15.921875 0 L 11.9375 0 Z M 10.03125 -5.640625 L 8.125 -11.3125 L 6.21875 -5.640625 Z M 10.03125 -5.640625 "/></g></g></g><g fill="#64677b" fill-opacity="1"><g transform="translate(125.30304, 321.226035)"><g><path d="M 15.21875 0 L 11.453125 0 L 5.140625 -9.546875 L 5.140625 0 L 1.375 0 L 1.375 -15.484375 L 5.140625 -15.484375 L 11.453125 -5.890625 L 11.453125 -15.484375 L 15.21875 -15.484375 Z M 15.21875 0 "/></g></g></g><g fill="#64677b" fill-opacity="1"><g transform="translate(144.681069, 321.226035)"><g><path d="M 10.859375 -9.3125 L 10.859375 -6.171875 L 1.140625 -6.171875 L 1.140625 -9.3125 Z M 10.859375 -9.3125 "/></g></g></g><g fill="#64677b" fill-opacity="1"><g transform="translate(160.267816, 321.226035)"><g><path d="M 0.734375 -7.765625 C 0.734375 -9.296875 1.0625 -10.660156 1.71875 -11.859375 C 2.382812 -13.054688 3.304688 -13.988281 4.484375 -14.65625 C 5.671875 -15.332031 7.015625 -15.671875 8.515625 -15.671875 C 10.359375 -15.671875 11.929688 -15.179688 13.234375 -14.203125 C 14.546875 -13.234375 15.421875 -11.910156 15.859375 -10.234375 L 11.71875 -10.234375 C 11.40625 -10.878906 10.960938 -11.367188 10.390625 -11.703125 C 9.828125 -12.046875 9.1875 -12.21875 8.46875 -12.21875 C 7.3125 -12.21875 6.367188 -11.8125 5.640625 -11 C 4.921875 -10.195312 4.5625 -9.117188 4.5625 -7.765625 C 4.5625 -6.410156 4.921875 -5.328125 5.640625 -4.515625 C 6.367188 -3.710938 7.3125 -3.3125 8.46875 -3.3125 C 9.1875 -3.3125 9.828125 -3.476562 10.390625 -3.8125 C 10.960938 -4.15625 11.40625 -4.648438 11.71875 -5.296875 L 15.859375 -5.296875 C 15.421875 -3.617188 14.546875 -2.296875 13.234375 -1.328125 C 11.929688 -0.367188 10.359375 0.109375 8.515625 0.109375 C 7.015625 0.109375 5.671875 -0.222656 4.484375 -0.890625 C 3.304688 -1.554688 2.382812 -2.484375 1.71875 -3.671875 C 1.0625 -4.867188 0.734375 -6.234375 0.734375 -7.765625 Z M 0.734375 -7.765625 "/></g></g></g><g fill="#64677b" fill-opacity="1"><g transform="translate(179.866272, 321.226035)"><g><path d="M 11.015625 -2.734375 L 5.234375 -2.734375 L 4.296875 0 L 0.359375 0 L 5.953125 -15.484375 L 10.328125 -15.484375 L 15.921875 0 L 11.9375 0 Z M 10.03125 -5.640625 L 8.125 -11.3125 L 6.21875 -5.640625 Z M 10.03125 -5.640625 "/></g></g></g><g fill="#64677b" fill-opacity="1"><g transform="translate(198.913665, 321.226035)"><g><path d="M 5.140625 -2.90625 L 10.078125 -2.90625 L 10.078125 0 L 1.375 0 L 1.375 -15.484375 L 5.140625 -15.484375 Z M 5.140625 -2.90625 "/></g></g></g><g fill="#64677b" fill-opacity="1"><g transform="translate(212.230064, 321.226035)"><g><path d="M 5.140625 -12.46875 L 5.140625 -9.328125 L 10.1875 -9.328125 L 10.1875 -6.421875 L 5.140625 -6.421875 L 5.140625 -3.015625 L 10.859375 -3.015625 L 10.859375 0 L 1.375 0 L 1.375 -15.484375 L 10.859375 -15.484375 L 10.859375 -12.46875 Z M 5.140625 -12.46875 "/></g></g></g><g fill="#64677b" fill-opacity="1"><g transform="translate(226.957167, 321.226035)"><g><path d="M 15.21875 0 L 11.453125 0 L 5.140625 -9.546875 L 5.140625 0 L 1.375 0 L 1.375 -15.484375 L 5.140625 -15.484375 L 11.453125 -5.890625 L 11.453125 -15.484375 L 15.21875 -15.484375 Z M 15.21875 0 "/></g></g></g><g fill="#64677b" fill-opacity="1"><g transform="translate(246.335191, 321.226035)"><g><path d="M 7.171875 -15.484375 C 8.804688 -15.484375 10.234375 -15.160156 11.453125 -14.515625 C 12.671875 -13.867188 13.613281 -12.957031 14.28125 -11.78125 C 14.957031 -10.613281 15.296875 -9.269531 15.296875 -7.75 C 15.296875 -6.226562 14.957031 -4.878906 14.28125 -3.703125 C 13.613281 -2.523438 12.664062 -1.613281 11.4375 -0.96875 C 10.207031 -0.320312 8.785156 0 7.171875 0 L 1.375 0 L 1.375 -15.484375 Z M 6.921875 -3.265625 C 8.347656 -3.265625 9.457031 -3.65625 10.25 -4.4375 C 11.050781 -5.21875 11.453125 -6.320312 11.453125 -7.75 C 11.453125 -9.175781 11.050781 -10.285156 10.25 -11.078125 C 9.457031 -11.867188 8.347656 -12.265625 6.921875 -12.265625 L 5.140625 -12.265625 L 5.140625 -3.265625 Z M 6.921875 -3.265625 "/></g></g></g><g fill="#64677b" fill-opacity="1"><g transform="translate(265.162148, 321.226035)"><g><path d="M 11.015625 -2.734375 L 5.234375 -2.734375 L 4.296875 0 L 0.359375 0 L 5.953125 -15.484375 L 10.328125 -15.484375 L 15.921875 0 L 11.9375 0 Z M 10.03125 -5.640625 L 8.125 -11.3125 L 6.21875 -5.640625 Z M 10.03125 -5.640625 "/></g></g></g><g fill="#64677b" fill-opacity="1"><g transform="translate(284.209531, 321.226035)"><g><path d="M 9.265625 0 L 6.046875 -5.84375 L 5.140625 -5.84375 L 5.140625 0 L 1.375 0 L 1.375 -15.484375 L 7.703125 -15.484375 C 8.921875 -15.484375 9.957031 -15.269531 10.8125 -14.84375 C 11.675781 -14.414062 12.320312 -13.832031 12.75 -13.09375 C 13.175781 -12.351562 13.390625 -11.523438 13.390625 -10.609375 C 13.390625 -9.578125 13.097656 -8.65625 12.515625 -7.84375 C 11.941406 -7.039062 11.085938 -6.472656 9.953125 -6.140625 L 13.53125 0 Z M 5.140625 -8.515625 L 7.484375 -8.515625 C 8.171875 -8.515625 8.6875 -8.679688 9.03125 -9.015625 C 9.375 -9.359375 9.546875 -9.835938 9.546875 -10.453125 C 9.546875 -11.046875 9.375 -11.507812 9.03125 -11.84375 C 8.6875 -12.1875 8.171875 -12.359375 7.484375 -12.359375 L 5.140625 -12.359375 Z M 5.140625 -8.515625 "/></g></g></g></svg>